<svg xmlns="http://www.w3.org/2000/svg" viewBox="0 0 400 300" role="img" aria-labelledby="projectInfographicsTitle">
  <title id="projectInfographicsTitle">Illustration of infographic charts including bar and pie charts</title>
  <defs>
    <linearGradient id="infoBg" x1="0%" y1="0%" x2="100%" y2="100%">
      <stop offset="0%" stop-color="#F6E9D8"/>
      <stop offset="100%" stop-color="#E4A853"/>
    </linearGradient>
  </defs>
  <rect width="400" height="300" fill="url(#infoBg)"/>
  <rect x="40" y="60" width="160" height="200" rx="10" fill="#FFFFFF" opacity="0.95"/>
  <rect x="60" y="200" width="20" height="40" fill="#C1633D"/>
  <rect x="90" y="170" width="20" height="70" fill="#7C8A6E"/>
  <rect x="120" y="140" width="20" height="100" fill="#E4A853"/>
  <rect x="150" y="185" width="20" height="55" fill="#2B2622" opacity="0.7"/>
  <line x1="55" y1="240" x2="180" y2="240" stroke="#2B2622" stroke-width="2"/>
  <g transform="translate(290 150)">
    <circle r="60" fill="#FFFFFF" opacity="0.95"/>
    <path d="M0 0 L0 -60 A60 60 0 0 1 52 30 Z" fill="#C1633D"/>
    <path d="M0 0 L52 30 A60 60 0 0 1 -30 52 Z" fill="#7C8A6E"/>
    <path d="M0 0 L-30 52 A60 60 0 0 1 0 -60 Z" fill="#E4A853"/>
    <circle r="24" fill="#FFFFFF"/>
  </g>
</svg>
